<svg xmlns="http://www.w3.org/2000/svg" xmlns:xlink="http://www.w3.org/1999/xlink" id="Capa_1" x="0" y="0" enable-background="new 0 0 512 512" version="1.1" viewBox="0 0 512 512" xml:space="preserve"><g><g><path d="M489.942,473.646L489.942,473.646l-29.928-63.091h-16.729V197.021h-81.291v101.105H348.65V168.711h-59.455l-84.93,38.016 h-30.326v-42.869H68.716v246.698h-16.73l-29.928,63.09H0v30h512v-30H489.942z M98.716,193.857h45.223v89.341h30v-46.472h18.53 v103.9h30v-109.18l54.93-24.587v77.957h30v-86.105h11.251v141.916h30v-12.501h43.344V227.021h21.291v183.535H98.716V193.857z M55.263,473.646l15.696-33.09h370.082l15.696,33.09H55.263z"/></g></g><g><g><path d="M405.105,8.354c-31.78,0-57.634,25.854-57.634,57.633s25.855,57.633,57.634,57.633c31.779,0,57.633-25.854,57.633-57.634 C462.738,34.206,436.885,8.354,405.105,8.354z M405.105,93.62c-15.237,0-27.634-12.396-27.634-27.634 c0.001-15.237,12.397-27.633,27.634-27.633c15.236,0,27.633,12.396,27.633,27.633S420.342,93.62,405.105,93.62z"/></g></g></svg>